# xmcd CD database file
#
# Track frame offsets:
#	150
#	28115
#	47575
#
# Disc length: 768 seconds
#
# Revision: 0
# Processed by: cddbd v1.5.1PL0 Copyright (c) Steve Scherf et al.
# Submitted via: CDex 1.51
#
DISCID=1d02fe03
DTITLE=斉藤和義 - 約束の十二月 - 誰かの冬の歌
DYEAR=2004
DGENRE=Japanese Rock
TTITLE0=約束の十二月
TTITLE1=誰かの冬の歌
TTITLE2=I'M YOUR MAN
EXTD=YEAR: 2004
EXTT0=
EXTT1=
EXTT2=
PLAYORDER=
